<svg xmlns="http://www.w3.org/2000/svg" xmlns:xlink="http://www.w3.org/1999/xlink" width="106" height="109" viewBox="0 0 106 109"><defs><path id="o1sna" d="M3198.86 238.99c0 1.73-.1 3.43-.33 5.1l7.36 2.37a7.06 7.06 0 1 1-4.38 13.45l-7.36-2.39c-1.64 3.01-3.66 5.78-6 8.24l4.54 6.24a7.06 7.06 0 0 1-1.57 9.87 7.1 7.1 0 0 1-9.9-1.57l-4.54-6.23a38.8 38.8 0 0 1-9.72 3.14v7.71c0 3.9-3.18 7.07-7.1 7.07a7.08 7.08 0 0 1-7.08-7.07v-7.7a38.8 38.8 0 0 1-9.72-3.15l-4.54 6.23a7.1 7.1 0 0 1-9.9 1.57 7.06 7.06 0 0 1-1.58-9.87l4.55-6.24a39 39 0 0 1-6-8.24l-7.36 2.39a7.06 7.06 0 1 1-4.38-13.44l7.35-2.39a39.1 39.1 0 0 1 0-10.18l-7.35-2.38a7.06 7.06 0 1 1 4.38-13.45l7.35 2.39a39 39 0 0 1 6.01-8.23l-4.55-6.25a7.05 7.05 0 0 1 1.57-9.87 7.1 7.1 0 0 1 9.9 1.57l4.55 6.23a38.8 38.8 0 0 1 9.72-3.14v-7.71a7.08 7.08 0 1 1 14.18 0v7.7a38.8 38.8 0 0 1 9.72 3.15l4.54-6.23a7.1 7.1 0 0 1 9.9-1.57 7.05 7.05 0 0 1 1.57 9.87l-4.55 6.25a38.99 38.99 0 0 1 6.01 8.23l7.36-2.39a7.06 7.06 0 1 1 4.38 13.44l-7.36 2.39c.22 1.67.33 3.37.33 5.09zm-63.8 0a24.77 24.77 0 0 0 24.8 24.73 24.78 24.78 0 0 0 24.82-24.73 24.78 24.78 0 0 0-24.81-24.73 24.77 24.77 0 0 0-24.82 24.73z"/></defs><g><g transform="translate(-3107 -184)"><use fill="#fff" xlink:href="#o1sna"/></g></g></svg>